<svg id="Layer_2" xmlns="http://www.w3.org/2000/svg" width="55" height="53" viewBox="0 0 55 53"><style>.st0{fill-rule:evenodd;clip-rule:evenodd}.st0,.st1{fill:#022b5a}</style><path class="st0" d="M8.2 21.8c0-7.9 4.8-15.6 13.1-15.6 8.2 0 13 7.7 13 15.6 0 7.4-4 15.6-13 15.6-9.1 0-13.1-8.1-13.1-15.6m-8.2 0c0 11.9 8.7 21.8 21.3 21.8 12.5 0 21.2-9.9 21.2-21.8C42.4 9.2 33.9 0 21.3 0 8.5 0 0 9.2 0 21.8"/><path class="st1" d="M53.9 53v-2.9h-7.5c3-3 7-6.6 7-10.5 0-3.6-2.3-5.4-5.8-5.4-1.9 0-3.8.5-5.5 1.3l.3 3.1c1.2-.8 2.7-1.5 4.3-1.5 1.5 0 3 .8 3 2.5 0 3.4-6.3 8.6-8 10.3V53h12.2z"/></svg>