<svg xmlns="http://www.w3.org/2000/svg" xmlns:xlink="http://www.w3.org/1999/xlink" width="145" height="56" viewBox="0 0 145 56"><g fill="#21356B"><path d="M27.6 40h3.6v-3.6c-1.8-.2-3.6.3-3.6 2.3V40zM23 41.1c-3.8.1-5.8 1.3-5.8 5.2v9.5h3.6v-9.5c0-1.8.7-2.1 2.1-2.1.9-.1 1.2.1 2-.3.7-.4 1-1.3 1-2.6-.9-.2-1.7-.3-2.9-.2M3.8 47.2H9c2 0 2.6.8 2.6 2.7 0 1.9-.6 2.8-2.6 2.8H3.8v-5.5zm11.5 2.9c0-3.2-1.4-4.3-3.2-4.6 1.5-.7 2.7-1.6 2.7-4.3 0-3.8-1.8-5.2-5.6-5.2H0v19.9h9.6c3.6-.1 5.7-1.5 5.7-5.8M3.8 44.2V39h4.7c2.1 0 2.6.7 2.6 2.6 0 1.9-.6 2.7-2.6 2.7H3.8zM46.6 40h3.6v-3.6c-1.8-.2-3.6.3-3.6 2.3V40z"/></g><path fill="#21356B" d="M46.6 41.2h3.7v14.5h-3.7zM75.7 41.1c-1.9 0-4.4 1-5.9 1.6v-7.3c-1.8-.2-3.6.3-3.6 2.3v18h3.6v-10c1.6-.6 3.5-1.3 4.8-1.3 1.1 0 1.7.7 1.7 1.6v9.7h3.6v-9.9c0-3-1.1-4.7-4.2-4.7M27.6 41.2h3.6v14.5h-3.6z"/><g fill="#21356B"><path d="M39.5 44.1H42c1.9 0 2.6-.9 2.4-2.9h-5v-4.9c-1.8-.2-3.6.3-3.6 2.3v2.6h-2.7v2.9h2.7v6.6c0 3.6 1.5 5.2 5.3 5.2 1.2 0 2.1-.1 3.1-.2l-.1-2.9c-.7.1-1.7.1-2.5.1-1.4 0-2.1-.5-2.1-2v-6.8zM55.8 45.3c0-.9.7-1.3 1.6-1.3 1.5 0 2.9.1 3.8.1 1.6.1 2.4-.8 2.4-2.7-1.1-.1-3.6-.3-5.7-.3-3.2 0-5.6 1.2-5.6 4.2 0 3.1 1.8 4 5 4.5 2.9.5 3.5.7 3.5 1.7 0 1.2-1.4 1.4-2.7 1.4-1.9 0-4-.1-5.3-.2l-.2 3c1.4.1 3.4.2 5.6.2 3.8 0 6.1-1.2 6.1-4.3 0-3-1.6-3.9-4.7-4.5-2.9-.5-3.8-.7-3.8-1.8M104.3 44.3h-7.5c-.2 2.2.5 3.1 2.4 3.1h1.3v5c-1 .1-3.4.3-4.4.3-3 0-4.1-1.2-4.1-7 0-5.7.9-7 5.6-6.7l3.2.2c2.1.1 2.9-1 2.9-2.9-1.5-.2-5.3-.7-6.9-.7-6.9 0-8.7 2-8.7 10 0 7.9 2.2 10.2 7.9 10.2 2.1 0 6.2-.4 8.3-.9V44.3zM125 45.3c0-.9.7-1.3 1.6-1.3 1.5 0 2.9.1 3.8.1 1.6.1 2.4-.8 2.4-2.7-1.1-.1-3.6-.3-5.7-.3-3.2 0-5.6 1.2-5.6 4.2 0 3.1 1.8 4 5 4.5 2.9.5 3.5.7 3.5 1.7 0 1.2-1.4 1.4-2.7 1.4-1.9 0-4-.1-5.3-.2l-.2 3c1.4.1 3.4.2 5.6.2 3.8 0 6.1-1.2 6.1-4.3 0-3-1.6-3.9-4.7-4.5-2.9-.5-3.8-.7-3.8-1.8M115.8 53.1c-.9.1-2.8.2-4.3.2s-1.7-1-1.7-1.8c0-1.3.6-1.7 2.1-2 1.2-.2 2.5-.4 3.9-.5v4.1zm3.6-7.3c0-3-1.2-4.6-4.9-4.6-2.3 0-5.4.3-6.7.4 0 1.8.5 2.7 2.1 2.7 1.1 0 3.2-.1 4.4-.1 1.1 0 1.6.4 1.6 1.6v.5c-1.6.1-3.1.3-4.5.5-3.2.5-5.1 1.4-5.1 4.6 0 2.9 1.4 4.6 4.5 4.6 3.2 0 6.8-.2 8.7-.5v-9.7z"/></g><defs><path id="a" d="M122.1 7.3s-4.9 1.7-7.6 4c-1.7 1.4-2.9 3.3-3.3 5.4 1.9-1 3.8-1.7 3.8-1.7l17.8-5.8s.7 13.5-7.3 19.4c2.3-.5 5-1.4 8-3.2C145.3 18.8 144.3 0 144.3 0l-22.2 7.3z"/></defs><clipPath id="b"><use xlink:href="#a" overflow="visible"/></clipPath><linearGradient id="c" gradientUnits="userSpaceOnUse" x1="-335.119" y1="331.922" x2="-334.276" y2="331.922" gradientTransform="scale(-25.6167 25.6167) rotate(-65 -429.888 -92.465)"><stop offset="0" stop-color="#2bace2"/><stop offset=".421" stop-color="#1877bb"/><stop offset=".8" stop-color="#0751a0"/><stop offset=".861" stop-color="#1f4799"/><stop offset=".944" stop-color="#2b3b92"/><stop offset="1" stop-color="#2e368f"/></linearGradient><path clip-path="url(#b)" fill="url(#c)" d="M117.3 41.6l-17-36.5L139.2-13l17 36.5z"/><g><defs><path id="d" d="M109 18.1c-1.8 1.5-2.8 3.7-2.8 6.1 0 4.5 4 8.1 8.9 8.1 2.4.1 5.4-.7 9.2-2.8.5-.3.9-.6 1.4-.9-1.2.2-2.4.3-3.4.3-6.1 0-11.1-4.5-11.1-10.1 0-.7.1-1.5.2-2.2-1 .5-1.8 1-2.4 1.5"/></defs><clipPath id="e"><use xlink:href="#d" overflow="visible"/></clipPath><linearGradient id="f" gradientUnits="userSpaceOnUse" x1="-363.87" y1="325.944" x2="-363.026" y2="325.944" gradientTransform="scale(23.8219 -23.8219) rotate(-30 -789.443 -524.855)"><stop offset="0" stop-color="#d6e042"/><stop offset=".294" stop-color="#97b543"/><stop offset=".627" stop-color="#5c9642"/><stop offset=".872" stop-color="#2c8541"/><stop offset="1" stop-color="#048040"/></linearGradient><path clip-path="url(#e)" fill="url(#f)" d="M111 8.2l21.3 12.3-11.6 20.3-21.4-12.4z"/></g></svg>