<svg id="Layer_1" data-name="Layer 1" xmlns="http://www.w3.org/2000/svg" viewBox="0 0 28.64 28.64"><defs><style>.cls-1{fill:#546cb2}</style></defs><title>logo-utilify</title><path class="cls-1" d="M310.42 406.59h-4.18a14.24 14.24 0 0 0-8.36 2.71 14.23 14.23 0 0 0-8.36-2.71h-4.18a1.77 1.77 0 0 0-1.77 1.77v12.54a14.32 14.32 0 1 0 28.64 0v-12.53a1.77 1.77 0 0 0-1.79-1.78zm-1.77 14.32a10.77 10.77 0 1 1-21.54 0v-10.77h2.41a10.69 10.69 0 0 1 5.7 1.64 14.25 14.25 0 0 0-3.3 9.13 6 6 0 1 0 11.91 0 14.24 14.24 0 0 0-2.77-8.46 10 10 0 0 0-2.66 2.38 10.7 10.7 0 0 1 1.88 6.07 2.41 2.41 0 1 1-4.81 0 10.78 10.78 0 0 1 10.77-10.77h2.41v10.77z" transform="translate(-283.55 -406.59)"/></svg>